<svg xmlns="http://www.w3.org/2000/svg" viewBox="0 0 151 151"><defs><style>.a{fill:none;}.b{fill:#f0ab00;}.c{fill:#fff;stroke:#fff;stroke-linecap:round;stroke-linejoin:round;stroke-width:6px;}</style></defs><title>dev-multistore-tables</title><path class="a" d="M34.7,106h69.7V36.3H34.7Zm3.2-66.5h63.3v63.3H37.9Z"/><rect class="b" x="37.9" y="39.5" width="63.3" height="63.29"/><path d="M107.4,33.3H31.7V109h75.7Zm-3,72.7H34.7V36.3h69.7Z"/><rect x="92.1" y="20.7" width="9" height="9.26"/><rect x="37.7" y="20.7" width="9" height="9.26"/><rect x="55.8" y="20.7" width="9" height="9.26"/><rect x="73.9" y="20.7" width="9" height="9.26"/><rect x="36.9" y="112.1" width="9" height="9.26"/><rect x="91.3" y="112.1" width="9" height="9.26"/><rect x="73.3" y="112.1" width="9" height="9.26"/><rect x="55.2" y="112.1" width="9" height="9.26"/><rect x="19" y="39.6" width="9.3" height="9"/><rect x="19" y="94" width="9.3" height="9"/><rect x="19" y="76" width="9.3" height="9"/><rect x="19" y="57.9" width="9.3" height="9"/><rect x="110.7" y="94.1" width="9.3" height="9"/><rect x="110.7" y="39.8" width="9.3" height="9"/><rect x="110.7" y="57.8" width="9.3" height="9"/><rect x="110.7" y="75.9" width="9.3" height="9"/><path class="c" d="M73.3,121.9h0c0,2.7,11.2,6.5,29.3,6.5s29.3-3.8,29.3-6.5h0V106.5c-4.6,3.5-17.2,5.4-29.3,5.4s-24.7-1.9-29.3-5.4Z"/><path class="c" d="M73.2,102h.1c.7,2.7,11.7,6.3,29.2,6.3s28.5-3.6,29.2-6.3h.1V82.6c-4.6,3.5-17.2,5.4-29.3,5.4s-24.7-1.9-29.3-5.4Z"/><path class="c" d="M73.3,81.8c0,2.7,11.2,6.5,29.3,6.5s29.3-3.8,29.3-6.5-11.2-6.5-29.3-6.5S73.3,79.1,73.3,81.8Z"/><path class="b" d="M73.3,121.9h0c0,2.7,11.2,6.5,29.3,6.5s29.3-3.8,29.3-6.5h0V106.5c-4.6,3.5-17.2,5.4-29.3,5.4s-24.7-1.9-29.3-5.4Z"/><path class="b" d="M73.2,102h.1c.7,2.7,11.7,6.3,29.2,6.3s28.5-3.6,29.2-6.3h.1V86.6c-4.6,3.5-17.2,5.4-29.3,5.4s-24.7-1.9-29.3-5.4Z"/><path class="b" d="M73.3,81.8c0,2.7,11.2,6.5,29.3,6.5s29.3-3.8,29.3-6.5-11.2-6.5-29.3-6.5S73.3,79.1,73.3,81.8Z"/></svg>